<svg width="28" height="29" viewBox="0 0 30 30" fill="none" xmlns="http://www.w3.org/2000/svg">
<path d="M18.3379 20.6268L21.8379 11.2935L25.3379 20.6268C24.3229 21.3851 23.0979 21.7935 21.8379 21.7935C20.5779 21.7935 19.3529 21.3851 18.3379 20.6268Z" stroke="" stroke-width="1.8" stroke-linecap="round" stroke-linejoin="round"/>
<path d="M2.00391 15.96L5.50391 6.62671L9.00391 15.96C7.98891 16.7184 6.76391 17.1267 5.50391 17.1267C4.24391 17.1267 3.01891 16.7184 2.00391 15.96Z" stroke="" stroke-width="1.8" stroke-linecap="round" stroke-linejoin="round"/>
<path d="M7.83789 26.4602H19.5046" stroke="" stroke-width="1.8" stroke-linecap="round" stroke-linejoin="round"/>
<path d="M13.6709 3.12671V25.2934" stroke="" stroke-width="1.8" stroke-linecap="round" stroke-linejoin="round"/>
<path d="M3.23098 5.00392L5.48294 5.61474C7.73491 6.22556 11.4183 6.0158 13.9756 5.50064C15.9222 7.23744 18.9947 9.27965 21.2467 9.89047L23.4987 10.5013" stroke="" stroke-width="1.8" stroke-linecap="round" stroke-linejoin="round"/>
</svg>
