<svg width="32" height="32" viewBox="0 0 32 36" fill="none" xmlns="http://www.w3.org/2000/svg">
<path d="M0 16C0 7.16344 7.16344 0 16 0C24.8366 0 32 7.16344 32 16C32 24.8366 24.8366 32 16 32C7.16344 32 0 24.8366 0 16Z" fill="#009695"/>
<path d="M0 16C0 7.16344 7.16344 0 16 0C24.8366 0 32 7.16344 32 16C32 24.8366 24.8366 32 16 32C7.16344 32 0 24.8366 0 16Z" fill="url(#paint0_radial_1691_36196)"/>
<circle cx="16" cy="16" r="12" fill="white"/>
<path d="M20.6668 11.3333L11.3335 20.6666M11.3335 11.3333L20.6668 20.6666" stroke="#05070C" stroke-width="1.2" stroke-linecap="round" stroke-linejoin="round"/>
<defs>
<!-- <radialGradient id="paint0_radial_1691_36196" cx="0" cy="0" r="1" gradientUnits="userSpaceOnUse" gradientTransform="translate(17 18.5) rotate(50.8981) scale(13.5099 12.5422)">
<stop offset="0.5" stop-opacity="0"/>
<stop offset="0.742231" stop-opacity="0.1"/>
<stop offset="1" stop-opacity="0.04"/>
</radialGradient> -->
</defs>
</svg>
