<svg width="24" height="24" viewBox="0 0 24 24" fill="none" xmlns="http://www.w3.org/2000/svg">
<path d="M9.5 16.3301L7 20.6602Z" fill="#05070C"/>
<path d="M9.5 16.3301L7 20.6602" stroke="#05070C" stroke-width="1.8" stroke-linecap="round" stroke-linejoin="round"/>
<path d="M15.9284 11.1965L17.0984 9.17004C17.231 8.94035 17.4494 8.77276 17.7056 8.70411C17.9617 8.63547 18.2347 8.67141 18.4644 8.80401C18.9238 9.06923 19.4697 9.1411 19.982 9.00381C20.4944 8.86653 20.9312 8.53133 21.1964 8.07196C21.4617 7.61259 21.5335 7.06668 21.3962 6.55432C21.2589 6.04197 20.9238 5.60513 20.4644 5.33991L13.4409 1.28491" fill="#05070C"/>
<path d="M15.9284 11.1965L17.0984 9.17004C17.231 8.94035 17.4494 8.77276 17.7056 8.70411C17.9617 8.63547 18.2347 8.67141 18.4644 8.80401C18.9238 9.06923 19.4697 9.1411 19.982 9.00381C20.4944 8.86653 20.9312 8.53133 21.1964 8.07196C21.4617 7.61259 21.5335 7.06668 21.3962 6.55432C21.2589 6.04197 20.9238 5.60513 20.4644 5.33991L13.4409 1.28491" stroke="#05070C" stroke-width="1.8" stroke-linecap="round" stroke-linejoin="round"/>
<path d="M9.21875 1.62085L14.781 22.3795Z" fill="#05070C"/>
<path d="M9.21875 1.62085L14.781 22.3795" stroke="#05070C" stroke-width="1.8" stroke-linecap="round" stroke-linejoin="round"/>
<path d="M10.9021 7.90186L10.0221 9.42606C9.83588 9.7482 9.56349 10.012 9.23556 10.1878C8.90763 10.3636 8.53716 10.4445 8.1658 10.4212L6.17428 10.3107C5.80292 10.2875 5.43245 10.3683 5.10452 10.5441C4.77659 10.7199 4.5042 10.9837 4.31799 11.3059L3.93799 11.964C3.80538 12.1937 3.76944 12.4667 3.83809 12.7229C3.90673 12.979 4.07433 13.1975 4.30401 13.3301L13.8303 18.8301" fill="#05070C"/>
<path d="M10.9021 7.90186L10.0221 9.42606C9.83588 9.7482 9.56349 10.012 9.23556 10.1878C8.90763 10.3636 8.53716 10.4445 8.1658 10.4212L6.17428 10.3107C5.80292 10.2875 5.43245 10.3683 5.10452 10.5441C4.77659 10.7199 4.5042 10.9837 4.31799 11.3059L3.93799 11.964C3.80538 12.1937 3.76944 12.4667 3.83809 12.7229C3.90673 12.979 4.07433 13.1975 4.30401 13.3301L13.8303 18.8301" stroke="#05070C" stroke-width="1.8" stroke-linecap="round" stroke-linejoin="round"/>
</svg>
