<svg width="24" height="24" viewBox="0 0 24 24" fill="none" xmlns="http://www.w3.org/2000/svg">
<path fill-rule="evenodd" clip-rule="evenodd" d="M5.37359 3.53274L11.4831 0.0838275C11.7367 -0.0363189 12.0191 -0.0410305 12.3506 0.160391L18.5965 3.67997C19.0535 3.96149 19.2534 4.37847 19.3108 5.01808V8.13717L11.8899 3.91556C11.6027 3.84253 11.4484 3.9721 11.3838 4.24066L11.3778 8.79916C9.0936 9.06654 7.31197 10.9889 7.31197 13.3082C7.31197 13.9796 7.46153 14.6168 7.72836 15.1905L4.63533 16.9338V4.77661C4.72148 4.29249 4.94523 3.86844 5.37119 3.53274H5.37359ZM6.40739 23.8375L0.35892 20.2861C0.12799 20.1271 -0.0143975 19.888 0.00115737 19.504L0.0550009 12.42C0.0801281 11.8912 0.351741 11.5142 0.888984 11.1514L3.65058 9.62133L3.55246 18.0587C3.62904 18.3402 3.81929 18.4097 4.08851 18.3319L8.24646 16.0362C9.09002 17.1352 10.4277 17.8478 11.9282 17.8478C13.4286 17.8478 14.7197 17.1599 15.5644 16.0939L18.6324 17.8985L7.86955 23.8587C7.39812 24.0224 6.91352 24.0377 6.40739 23.8363V23.8375ZM23.9378 12.5461L24 19.4804C23.9832 19.7572 23.848 20.001 23.507 20.1883L17.3329 23.8257C16.8603 24.0801 16.3925 24.0472 15.799 23.7845L13.0362 22.2567L20.4092 17.9538C20.615 17.743 20.5755 17.5463 20.3685 17.3602L16.189 15.0432C16.4152 14.5085 16.5408 13.9219 16.5408 13.3082C16.5408 10.9842 14.7508 9.05829 12.4595 8.79798L12.4307 5.35378L23.1983 11.3057C23.5848 11.6167 23.8492 12.016 23.9378 12.5461Z" fill="#D2232A"/>
<path fill-rule="evenodd" clip-rule="evenodd" d="M11.9994 9.59985C13.9882 9.59985 15.5994 11.2123 15.5994 13.1999C15.5994 15.1874 13.9869 16.7999 11.9994 16.7999C10.0119 16.7999 8.39941 15.1874 8.39941 13.1999C8.39941 11.2123 10.0119 9.59985 11.9994 9.59985Z" fill="#FFCB05"/>
</svg>
