<svg width="20" height="18" viewBox="0 0 20 18" fill="none" xmlns="http://www.w3.org/2000/svg">
<path d="M18.5522 -0.00308982C18.3115 0.014427 18.0751 0.0709115 17.8525 0.16416H17.8495C17.6357 0.24891 16.6195 0.67641 15.0745 1.32441L9.53797 3.65616C5.56522 5.32866 1.65997 6.97566 1.65997 6.97566L1.70647 6.95766C1.70647 6.95766 1.43722 7.04616 1.15597 7.23891C0.982219 7.34948 0.832703 7.49414 0.716473 7.66416C0.578473 7.86666 0.467473 8.17641 0.508723 8.49666C0.576223 9.03816 0.927223 9.36291 1.17922 9.54216C1.43422 9.72366 1.67722 9.80841 1.67722 9.80841H1.68322L5.34547 11.0422C5.50972 11.5694 6.46147 14.6984 6.69022 15.4192C6.82522 15.8497 6.95647 16.1189 7.12072 16.3244C7.20022 16.4294 7.29322 16.5172 7.40497 16.5877C7.46307 16.6215 7.52501 16.6481 7.58947 16.6672L7.55197 16.6582C7.56322 16.6612 7.57222 16.6702 7.58047 16.6732C7.61047 16.6814 7.63072 16.6844 7.66897 16.6904C8.24872 16.8659 8.71447 16.5059 8.71447 16.5059L8.74072 16.4849L10.903 14.5162L14.527 17.2964L14.6095 17.3317C15.3647 17.6632 16.1297 17.4787 16.534 17.1532C16.9412 16.8254 17.0995 16.4062 17.0995 16.4062L17.1257 16.3387L19.9262 1.99191C20.0057 1.63791 20.026 1.30641 19.9382 0.98466C19.8477 0.659029 19.6388 0.378966 19.3525 0.19941C19.112 0.0532463 18.8332 -0.0173034 18.5522 -0.00308982ZM18.4765 1.53441C18.4735 1.58166 18.4825 1.57641 18.4615 1.66716V1.67541L15.6872 15.8729C15.6752 15.8932 15.655 15.9374 15.5995 15.9817C15.541 16.0282 15.4945 16.0574 15.2507 15.9607L10.8182 12.5624L8.14072 15.0029L8.70322 11.4104L15.9452 4.66041C16.2437 4.38291 16.144 4.32441 16.144 4.32441C16.165 3.98391 15.6932 4.22466 15.6932 4.22466L6.56122 9.88191L6.55822 9.86691L2.18122 8.39316V8.39016L2.16997 8.38791C2.17765 8.38536 2.18516 8.38236 2.19247 8.37891L2.21647 8.36691L2.23972 8.35866C2.23972 8.35866 6.14797 6.71166 10.1207 5.03916C12.1097 4.20141 14.1137 3.35766 15.655 2.70666C16.569 2.32191 17.484 1.93941 18.4 1.55916C18.4615 1.53516 18.4322 1.53441 18.4765 1.53441Z" fill="#06080F"/>
</svg>
