<svg xmlns="http://www.w3.org/2000/svg" width="24" height="24" viewBox="0 0 24 24" fill="none">
<path d="M6.93994 5.001C6.93968 5.53143 6.72871 6.04004 6.35345 6.41492C5.97819 6.78981 5.46937 7.00027 4.93894 7C4.40851 6.99974 3.89991 6.78877 3.52502 6.41351C3.15014 6.03825 2.93968 5.52943 2.93994 4.999C2.94021 4.46857 3.15117 3.95996 3.52644 3.58508C3.9017 3.21019 4.41051 2.99974 4.94094 3C5.47137 3.00027 5.97998 3.21123 6.35486 3.58649C6.72975 3.96175 6.94021 4.47057 6.93994 5.001ZM6.99994 8.481H2.99994V21.001H6.99994V8.481ZM13.3199 8.481H9.33994V21.001H13.2799V14.431C13.2799 10.771 18.0499 10.431 18.0499 14.431V21.001H21.9999V13.071C21.9999 6.901 14.9399 7.131 13.2799 10.161L13.3199 8.481Z" fill="#008483"/>
</svg>